<mxfile host="app.diagrams.net" modified="2022-11-21T18:58:59.639Z" agent="5.0 (Windows NT 10.0; Win64; x64) AppleWebKit/537.36 (KHTML, like Gecko) Chrome/107.0.0.0 Safari/537.36" etag="XYHJX0YfbzUrTIDqOJ2R" version="20.5.3" type="github" pages="2">
  <diagram id="dg4eyf_hxNvLDcLa7-uG" name="use_cases">
    <mxGraphModel dx="2031" dy="1077" grid="0" gridSize="10" guides="1" tooltips="1" connect="1" arrows="1" fold="1" page="1" pageScale="1" pageWidth="1200" pageHeight="1920" math="0" shadow="0">
      <root>
        <mxCell id="0" />
        <mxCell id="1" parent="0" />
        <mxCell id="i-XORGPP-G_SOjQB8cou-7" value="" style="rounded=0;whiteSpace=wrap;html=1;" parent="1" vertex="1">
          <mxGeometry x="248" y="122" width="694" height="1136" as="geometry" />
        </mxCell>
        <mxCell id="i-XORGPP-G_SOjQB8cou-24" style="edgeStyle=orthogonalEdgeStyle;rounded=0;orthogonalLoop=1;jettySize=auto;html=1;entryX=0;entryY=0.5;entryDx=0;entryDy=0;" parent="1" source="i-XORGPP-G_SOjQB8cou-1" target="i-XORGPP-G_SOjQB8cou-23" edge="1">
          <mxGeometry relative="1" as="geometry" />
        </mxCell>
        <mxCell id="i-XORGPP-G_SOjQB8cou-60" style="edgeStyle=orthogonalEdgeStyle;rounded=0;orthogonalLoop=1;jettySize=auto;html=1;entryX=0;entryY=0.5;entryDx=0;entryDy=0;" parent="1" source="i-XORGPP-G_SOjQB8cou-1" target="i-XORGPP-G_SOjQB8cou-9" edge="1">
          <mxGeometry relative="1" as="geometry">
            <Array as="points">
              <mxPoint x="489" y="205" />
              <mxPoint x="489" y="185" />
            </Array>
          </mxGeometry>
        </mxCell>
        <mxCell id="i-XORGPP-G_SOjQB8cou-1" value="Operator" style="shape=umlActor;verticalLabelPosition=bottom;verticalAlign=top;html=1;outlineConnect=0;" parent="1" vertex="1">
          <mxGeometry x="185" y="175.00000000000003" width="30" height="60" as="geometry" />
        </mxCell>
        <mxCell id="i-XORGPP-G_SOjQB8cou-10" style="edgeStyle=orthogonalEdgeStyle;rounded=0;orthogonalLoop=1;jettySize=auto;html=1;" parent="1" source="i-XORGPP-G_SOjQB8cou-6" target="i-XORGPP-G_SOjQB8cou-9" edge="1">
          <mxGeometry relative="1" as="geometry" />
        </mxCell>
        <mxCell id="i-XORGPP-G_SOjQB8cou-6" value="Camera" style="shape=mxgraph.signs.tech.camera_1;html=1;pointerEvents=1;fillColor=#000000;strokeColor=none;verticalLabelPosition=bottom;verticalAlign=top;align=center;" parent="1" vertex="1">
          <mxGeometry x="976" y="115" width="82" height="70.29" as="geometry" />
        </mxCell>
        <mxCell id="i-XORGPP-G_SOjQB8cou-8" value="police-anpr-system" style="text;html=1;strokeColor=none;fillColor=none;align=center;verticalAlign=middle;whiteSpace=wrap;rounded=0;fontStyle=1" parent="1" vertex="1">
          <mxGeometry x="513" y="92" width="131" height="30" as="geometry" />
        </mxCell>
        <mxCell id="i-XORGPP-G_SOjQB8cou-12" value="&amp;lt;&amp;lt;includes&amp;gt;&amp;gt;" style="edgeStyle=orthogonalEdgeStyle;rounded=0;orthogonalLoop=1;jettySize=auto;html=1;entryX=0.5;entryY=0;entryDx=0;entryDy=0;" parent="1" source="i-XORGPP-G_SOjQB8cou-9" target="i-XORGPP-G_SOjQB8cou-11" edge="1">
          <mxGeometry relative="1" as="geometry">
            <Array as="points">
              <mxPoint x="679" y="380" />
            </Array>
          </mxGeometry>
        </mxCell>
        <mxCell id="i-XORGPP-G_SOjQB8cou-62" value="&amp;lt;&amp;lt;includes&amp;gt;&amp;gt;" style="edgeStyle=orthogonalEdgeStyle;rounded=0;orthogonalLoop=1;jettySize=auto;html=1;entryX=0.992;entryY=0.613;entryDx=0;entryDy=0;entryPerimeter=0;" parent="1" source="i-XORGPP-G_SOjQB8cou-9" target="i-XORGPP-G_SOjQB8cou-19" edge="1">
          <mxGeometry relative="1" as="geometry">
            <Array as="points">
              <mxPoint x="639" y="296" />
              <mxPoint x="638" y="296" />
            </Array>
          </mxGeometry>
        </mxCell>
        <mxCell id="i-XORGPP-G_SOjQB8cou-66" value="&amp;lt;&amp;lt;excludes&amp;gt;&amp;gt;" style="edgeStyle=orthogonalEdgeStyle;rounded=0;orthogonalLoop=1;jettySize=auto;html=1;" parent="1" source="i-XORGPP-G_SOjQB8cou-9" target="i-XORGPP-G_SOjQB8cou-65" edge="1">
          <mxGeometry relative="1" as="geometry">
            <Array as="points">
              <mxPoint x="631" y="228" />
            </Array>
          </mxGeometry>
        </mxCell>
        <mxCell id="i-XORGPP-G_SOjQB8cou-9" value="Reads vehicle registration number (VRN)" style="ellipse;whiteSpace=wrap;html=1;" parent="1" vertex="1">
          <mxGeometry x="571" y="144.5" width="120" height="80" as="geometry" />
        </mxCell>
        <mxCell id="i-XORGPP-G_SOjQB8cou-70" style="edgeStyle=orthogonalEdgeStyle;rounded=0;orthogonalLoop=1;jettySize=auto;html=1;entryX=0;entryY=0.5;entryDx=0;entryDy=0;entryPerimeter=0;" parent="1" source="i-XORGPP-G_SOjQB8cou-11" target="i-XORGPP-G_SOjQB8cou-48" edge="1">
          <mxGeometry relative="1" as="geometry" />
        </mxCell>
        <mxCell id="i-XORGPP-G_SOjQB8cou-11" value="Checks VRN against PNC file" style="ellipse;whiteSpace=wrap;html=1;" parent="1" vertex="1">
          <mxGeometry x="763" y="342" width="140.5" height="63" as="geometry" />
        </mxCell>
        <mxCell id="i-XORGPP-G_SOjQB8cou-19" value="Stores VRN &amp;amp; PNC look-up in memory" style="ellipse;whiteSpace=wrap;html=1;" parent="1" vertex="1">
          <mxGeometry x="502" y="306" width="120" height="80" as="geometry" />
        </mxCell>
        <mxCell id="zZ_UN49G_LnYbIj92RHk-5" style="edgeStyle=orthogonalEdgeStyle;rounded=0;orthogonalLoop=1;jettySize=auto;html=1;" parent="1" source="i-XORGPP-G_SOjQB8cou-21" target="i-XORGPP-G_SOjQB8cou-31" edge="1">
          <mxGeometry relative="1" as="geometry" />
        </mxCell>
        <mxCell id="zZ_UN49G_LnYbIj92RHk-7" style="edgeStyle=orthogonalEdgeStyle;rounded=0;orthogonalLoop=1;jettySize=auto;html=1;entryX=0.018;entryY=0.599;entryDx=0;entryDy=0;entryPerimeter=0;" parent="1" source="i-XORGPP-G_SOjQB8cou-21" target="zZ_UN49G_LnYbIj92RHk-6" edge="1">
          <mxGeometry relative="1" as="geometry" />
        </mxCell>
        <mxCell id="i-XORGPP-G_SOjQB8cou-21" value="Admin User" style="shape=umlActor;verticalLabelPosition=bottom;verticalAlign=top;html=1;outlineConnect=0;" parent="1" vertex="1">
          <mxGeometry x="172" y="644" width="30" height="60" as="geometry" />
        </mxCell>
        <mxCell id="i-XORGPP-G_SOjQB8cou-23" value="Begins shift" style="ellipse;whiteSpace=wrap;html=1;" parent="1" vertex="1">
          <mxGeometry x="315" y="135" width="96" height="63" as="geometry" />
        </mxCell>
        <mxCell id="i-XORGPP-G_SOjQB8cou-34" style="edgeStyle=orthogonalEdgeStyle;rounded=0;orthogonalLoop=1;jettySize=auto;html=1;" parent="1" source="i-XORGPP-G_SOjQB8cou-31" target="i-XORGPP-G_SOjQB8cou-32" edge="1">
          <mxGeometry relative="1" as="geometry" />
        </mxCell>
        <mxCell id="i-XORGPP-G_SOjQB8cou-31" value="Operator" style="shape=umlActor;verticalLabelPosition=bottom;verticalAlign=top;html=1;outlineConnect=0;" parent="1" vertex="1">
          <mxGeometry x="172" y="500.5" width="30" height="60" as="geometry" />
        </mxCell>
        <mxCell id="i-XORGPP-G_SOjQB8cou-36" value="" style="edgeStyle=orthogonalEdgeStyle;rounded=0;orthogonalLoop=1;jettySize=auto;html=1;" parent="1" source="i-XORGPP-G_SOjQB8cou-32" target="i-XORGPP-G_SOjQB8cou-35" edge="1">
          <mxGeometry relative="1" as="geometry" />
        </mxCell>
        <mxCell id="i-XORGPP-G_SOjQB8cou-38" value="&amp;lt;&amp;lt;i&amp;gt;&amp;gt;" style="edgeStyle=orthogonalEdgeStyle;rounded=0;orthogonalLoop=1;jettySize=auto;html=1;" parent="1" source="i-XORGPP-G_SOjQB8cou-32" target="i-XORGPP-G_SOjQB8cou-37" edge="1">
          <mxGeometry relative="1" as="geometry" />
        </mxCell>
        <mxCell id="i-XORGPP-G_SOjQB8cou-39" value="&amp;lt;&amp;lt;i&amp;gt;&amp;gt;" style="edgeStyle=orthogonalEdgeStyle;rounded=0;orthogonalLoop=1;jettySize=auto;html=1;" parent="1" source="i-XORGPP-G_SOjQB8cou-32" target="i-XORGPP-G_SOjQB8cou-35" edge="1">
          <mxGeometry relative="1" as="geometry" />
        </mxCell>
        <mxCell id="i-XORGPP-G_SOjQB8cou-43" value="&amp;lt;&amp;lt;i&amp;gt;&amp;gt;" style="edgeStyle=orthogonalEdgeStyle;rounded=0;orthogonalLoop=1;jettySize=auto;html=1;" parent="1" source="i-XORGPP-G_SOjQB8cou-32" target="i-XORGPP-G_SOjQB8cou-42" edge="1">
          <mxGeometry relative="1" as="geometry" />
        </mxCell>
        <mxCell id="i-XORGPP-G_SOjQB8cou-68" value="&amp;lt;&amp;lt;i&amp;gt;&amp;gt;" style="edgeStyle=orthogonalEdgeStyle;rounded=0;orthogonalLoop=1;jettySize=auto;html=1;entryX=0;entryY=0.5;entryDx=0;entryDy=0;" parent="1" source="i-XORGPP-G_SOjQB8cou-32" target="i-XORGPP-G_SOjQB8cou-67" edge="1">
          <mxGeometry relative="1" as="geometry" />
        </mxCell>
        <mxCell id="i-XORGPP-G_SOjQB8cou-32" value="Ends shift" style="ellipse;whiteSpace=wrap;html=1;" parent="1" vertex="1">
          <mxGeometry x="318" y="499" width="96" height="63" as="geometry" />
        </mxCell>
        <mxCell id="i-XORGPP-G_SOjQB8cou-35" value="Display all look-ups and VRNs" style="ellipse;whiteSpace=wrap;html=1;" parent="1" vertex="1">
          <mxGeometry x="414" y="408" width="120" height="60" as="geometry" />
        </mxCell>
        <mxCell id="i-XORGPP-G_SOjQB8cou-37" value="Edit a look-up/VRN" style="ellipse;whiteSpace=wrap;html=1;" parent="1" vertex="1">
          <mxGeometry x="486" y="549" width="136" height="60" as="geometry" />
        </mxCell>
        <mxCell id="i-XORGPP-G_SOjQB8cou-42" value="Delete a VRN/look-up" style="ellipse;whiteSpace=wrap;html=1;" parent="1" vertex="1">
          <mxGeometry x="264" y="397" width="120" height="60" as="geometry" />
        </mxCell>
        <mxCell id="i-XORGPP-G_SOjQB8cou-48" value="CSV file -&amp;nbsp;&lt;br&gt;vehicles_of_interest" style="verticalLabelPosition=bottom;html=1;verticalAlign=top;align=center;strokeColor=none;fillColor=#000000;shape=mxgraph.azure.file_2;pointerEvents=1;" parent="1" vertex="1">
          <mxGeometry x="999" y="343.5" width="47.5" height="60" as="geometry" />
        </mxCell>
        <mxCell id="i-XORGPP-G_SOjQB8cou-52" value="CSV file -&amp;nbsp;&lt;br&gt;shift_log" style="verticalLabelPosition=bottom;html=1;verticalAlign=top;align=center;strokeColor=none;fillColor=#000000;shape=mxgraph.azure.file_2;pointerEvents=1;" parent="1" vertex="1">
          <mxGeometry x="990" y="472" width="47.5" height="60" as="geometry" />
        </mxCell>
        <mxCell id="i-XORGPP-G_SOjQB8cou-59" style="edgeStyle=orthogonalEdgeStyle;rounded=0;orthogonalLoop=1;jettySize=auto;html=1;entryX=1;entryY=0.5;entryDx=0;entryDy=0;" parent="1" source="i-XORGPP-G_SOjQB8cou-58" target="i-XORGPP-G_SOjQB8cou-9" edge="1">
          <mxGeometry relative="1" as="geometry">
            <Array as="points">
              <mxPoint x="835" y="251" />
              <mxPoint x="835" y="185" />
            </Array>
          </mxGeometry>
        </mxCell>
        <mxCell id="i-XORGPP-G_SOjQB8cou-58" value="Car" style="shape=mxgraph.signs.transportation.car_1;html=1;pointerEvents=1;fillColor=#000000;strokeColor=none;verticalLabelPosition=bottom;verticalAlign=top;align=center;" parent="1" vertex="1">
          <mxGeometry x="990" y="229" width="61" height="61" as="geometry" />
        </mxCell>
        <mxCell id="i-XORGPP-G_SOjQB8cou-65" value="Rejects invalid VRN" style="ellipse;whiteSpace=wrap;html=1;" parent="1" vertex="1">
          <mxGeometry x="306" y="274" width="120" height="80" as="geometry" />
        </mxCell>
        <mxCell id="i-XORGPP-G_SOjQB8cou-69" style="edgeStyle=orthogonalEdgeStyle;rounded=0;orthogonalLoop=1;jettySize=auto;html=1;entryX=0;entryY=0.5;entryDx=0;entryDy=0;entryPerimeter=0;" parent="1" source="i-XORGPP-G_SOjQB8cou-67" target="i-XORGPP-G_SOjQB8cou-52" edge="1">
          <mxGeometry relative="1" as="geometry" />
        </mxCell>
        <mxCell id="i-XORGPP-G_SOjQB8cou-67" value="Save all VRN and look-up info in memory to shift_log" style="ellipse;whiteSpace=wrap;html=1;" parent="1" vertex="1">
          <mxGeometry x="676" y="495" width="167" height="60" as="geometry" />
        </mxCell>
        <mxCell id="zZ_UN49G_LnYbIj92RHk-6" value="Display vehicles of interest" style="ellipse;whiteSpace=wrap;html=1;" parent="1" vertex="1">
          <mxGeometry x="524" y="639" width="136" height="60" as="geometry" />
        </mxCell>
        <mxCell id="zZ_UN49G_LnYbIj92RHk-10" style="edgeStyle=orthogonalEdgeStyle;rounded=0;orthogonalLoop=1;jettySize=auto;html=1;" parent="1" source="zZ_UN49G_LnYbIj92RHk-9" target="zZ_UN49G_LnYbIj92RHk-6" edge="1">
          <mxGeometry relative="1" as="geometry" />
        </mxCell>
        <mxCell id="zZ_UN49G_LnYbIj92RHk-9" value="CSV file -&amp;nbsp;&lt;br&gt;vehicles_of_interest" style="verticalLabelPosition=bottom;html=1;verticalAlign=top;align=center;strokeColor=none;fillColor=#000000;shape=mxgraph.azure.file_2;pointerEvents=1;" parent="1" vertex="1">
          <mxGeometry x="986" y="639" width="47.5" height="60" as="geometry" />
        </mxCell>
        <mxCell id="zZ_UN49G_LnYbIj92RHk-11" value="Add vehicles to vehicles of interest" style="ellipse;whiteSpace=wrap;html=1;" parent="1" vertex="1">
          <mxGeometry x="517" y="714" width="156" height="60" as="geometry" />
        </mxCell>
        <mxCell id="zZ_UN49G_LnYbIj92RHk-12" style="edgeStyle=orthogonalEdgeStyle;rounded=0;orthogonalLoop=1;jettySize=auto;html=1;entryX=1;entryY=0.5;entryDx=0;entryDy=0;" parent="1" target="zZ_UN49G_LnYbIj92RHk-11" edge="1">
          <mxGeometry relative="1" as="geometry">
            <mxPoint x="996" y="679" as="sourcePoint" />
            <mxPoint x="670.0000000000005" y="679" as="targetPoint" />
          </mxGeometry>
        </mxCell>
        <mxCell id="zZ_UN49G_LnYbIj92RHk-13" style="edgeStyle=orthogonalEdgeStyle;rounded=0;orthogonalLoop=1;jettySize=auto;html=1;entryX=0;entryY=0.5;entryDx=0;entryDy=0;" parent="1" target="zZ_UN49G_LnYbIj92RHk-11" edge="1">
          <mxGeometry relative="1" as="geometry">
            <mxPoint x="212" y="683.9999999999998" as="sourcePoint" />
            <mxPoint x="536.4479999999999" y="684.94" as="targetPoint" />
          </mxGeometry>
        </mxCell>
        <mxCell id="zZ_UN49G_LnYbIj92RHk-14" value="Remove vehicles from vehicles of interest" style="ellipse;whiteSpace=wrap;html=1;" parent="1" vertex="1">
          <mxGeometry x="517" y="782" width="156" height="60" as="geometry" />
        </mxCell>
        <mxCell id="zZ_UN49G_LnYbIj92RHk-15" style="edgeStyle=orthogonalEdgeStyle;rounded=0;orthogonalLoop=1;jettySize=auto;html=1;entryX=0;entryY=0.5;entryDx=0;entryDy=0;" parent="1" target="zZ_UN49G_LnYbIj92RHk-14" edge="1">
          <mxGeometry relative="1" as="geometry">
            <mxPoint x="222" y="693.9999999999998" as="sourcePoint" />
            <mxPoint x="527" y="754" as="targetPoint" />
            <Array as="points">
              <mxPoint x="222" y="708" />
              <mxPoint x="355" y="708" />
              <mxPoint x="355" y="812" />
            </Array>
          </mxGeometry>
        </mxCell>
        <mxCell id="zZ_UN49G_LnYbIj92RHk-16" style="edgeStyle=orthogonalEdgeStyle;rounded=0;orthogonalLoop=1;jettySize=auto;html=1;entryX=1;entryY=0.5;entryDx=0;entryDy=0;" parent="1" target="zZ_UN49G_LnYbIj92RHk-14" edge="1">
          <mxGeometry relative="1" as="geometry">
            <mxPoint x="1006" y="689" as="sourcePoint" />
            <mxPoint x="683.0000000000005" y="754" as="targetPoint" />
          </mxGeometry>
        </mxCell>
        <mxCell id="zZ_UN49G_LnYbIj92RHk-17" value="Update vehicle info in vehicles of interest" style="ellipse;whiteSpace=wrap;html=1;" parent="1" vertex="1">
          <mxGeometry x="517" y="853" width="156" height="60" as="geometry" />
        </mxCell>
        <mxCell id="zZ_UN49G_LnYbIj92RHk-18" style="edgeStyle=orthogonalEdgeStyle;rounded=0;orthogonalLoop=1;jettySize=auto;html=1;entryX=1;entryY=0.5;entryDx=0;entryDy=0;" parent="1" target="zZ_UN49G_LnYbIj92RHk-17" edge="1">
          <mxGeometry relative="1" as="geometry">
            <mxPoint x="1016" y="699" as="sourcePoint" />
            <mxPoint x="683.0000000000023" y="821.9999999999998" as="targetPoint" />
          </mxGeometry>
        </mxCell>
        <mxCell id="zZ_UN49G_LnYbIj92RHk-19" style="edgeStyle=orthogonalEdgeStyle;rounded=0;orthogonalLoop=1;jettySize=auto;html=1;entryX=0;entryY=0.5;entryDx=0;entryDy=0;" parent="1" target="zZ_UN49G_LnYbIj92RHk-17" edge="1">
          <mxGeometry relative="1" as="geometry">
            <mxPoint x="232" y="703.9999999999998" as="sourcePoint" />
            <mxPoint x="526.9999999999977" y="821.9999999999998" as="targetPoint" />
            <Array as="points">
              <mxPoint x="232" y="718" />
              <mxPoint x="342" y="718" />
              <mxPoint x="342" y="883" />
            </Array>
          </mxGeometry>
        </mxCell>
      </root>
    </mxGraphModel>
  </diagram>
  <diagram id="9fVHAyjZKPq7moV4I8VM" name="class_diagrams">
    <mxGraphModel dx="917" dy="486" grid="0" gridSize="10" guides="1" tooltips="1" connect="1" arrows="1" fold="1" page="1" pageScale="1" pageWidth="850" pageHeight="1100" math="0" shadow="0">
      <root>
        <mxCell id="0" />
        <mxCell id="1" parent="0" />
        <mxCell id="wKDhlSOiQKYbSJoY5evN-64" style="edgeStyle=orthogonalEdgeStyle;rounded=0;orthogonalLoop=1;jettySize=auto;html=1;entryX=0.47;entryY=0.987;entryDx=0;entryDy=0;entryPerimeter=0;fontColor=#FFFFFF;endArrow=block;endFill=0;" edge="1" parent="1" source="wKDhlSOiQKYbSJoY5evN-12" target="wKDhlSOiQKYbSJoY5evN-51">
          <mxGeometry relative="1" as="geometry">
            <Array as="points">
              <mxPoint x="139" y="251" />
              <mxPoint x="134" y="251" />
            </Array>
          </mxGeometry>
        </mxCell>
        <mxCell id="wKDhlSOiQKYbSJoY5evN-12" value="adminOfficer" style="swimlane;fontStyle=1;align=center;verticalAlign=top;childLayout=stackLayout;horizontal=1;startSize=26;horizontalStack=0;resizeParent=1;resizeParentMax=0;resizeLast=0;collapsible=1;marginBottom=0;fillColor=#000000;fontColor=#FFFFFF;" vertex="1" parent="1">
          <mxGeometry x="59" y="235" width="160" height="138" as="geometry" />
        </mxCell>
        <mxCell id="wKDhlSOiQKYbSJoY5evN-14" value="" style="line;strokeWidth=1;fillColor=none;align=left;verticalAlign=middle;spacingTop=-1;spacingLeft=3;spacingRight=3;rotatable=0;labelPosition=right;points=[];portConstraint=eastwest;strokeColor=inherit;" vertex="1" parent="wKDhlSOiQKYbSJoY5evN-12">
          <mxGeometry y="26" width="160" height="8" as="geometry" />
        </mxCell>
        <mxCell id="wKDhlSOiQKYbSJoY5evN-15" value="+ displayPNCVehicles()" style="text;strokeColor=none;fillColor=none;align=left;verticalAlign=top;spacingLeft=4;spacingRight=4;overflow=hidden;rotatable=0;points=[[0,0.5],[1,0.5]];portConstraint=eastwest;" vertex="1" parent="wKDhlSOiQKYbSJoY5evN-12">
          <mxGeometry y="34" width="160" height="26" as="geometry" />
        </mxCell>
        <mxCell id="wKDhlSOiQKYbSJoY5evN-16" value="+ addPNCVehicle()" style="text;strokeColor=none;fillColor=none;align=left;verticalAlign=top;spacingLeft=4;spacingRight=4;overflow=hidden;rotatable=0;points=[[0,0.5],[1,0.5]];portConstraint=eastwest;" vertex="1" parent="wKDhlSOiQKYbSJoY5evN-12">
          <mxGeometry y="60" width="160" height="26" as="geometry" />
        </mxCell>
        <mxCell id="wKDhlSOiQKYbSJoY5evN-18" value="+ removePNCVehicle()" style="text;strokeColor=none;fillColor=none;align=left;verticalAlign=top;spacingLeft=4;spacingRight=4;overflow=hidden;rotatable=0;points=[[0,0.5],[1,0.5]];portConstraint=eastwest;" vertex="1" parent="wKDhlSOiQKYbSJoY5evN-12">
          <mxGeometry y="86" width="160" height="26" as="geometry" />
        </mxCell>
        <mxCell id="wKDhlSOiQKYbSJoY5evN-19" value="+ updatePNCVehicle" style="text;strokeColor=none;fillColor=none;align=left;verticalAlign=top;spacingLeft=4;spacingRight=4;overflow=hidden;rotatable=0;points=[[0,0.5],[1,0.5]];portConstraint=eastwest;" vertex="1" parent="wKDhlSOiQKYbSJoY5evN-12">
          <mxGeometry y="112" width="160" height="26" as="geometry" />
        </mxCell>
        <mxCell id="wKDhlSOiQKYbSJoY5evN-71" style="edgeStyle=orthogonalEdgeStyle;rounded=0;orthogonalLoop=1;jettySize=auto;html=1;fontSize=10;fontColor=#000000;endArrow=none;endFill=0;" edge="1" parent="1" source="wKDhlSOiQKYbSJoY5evN-31" target="wKDhlSOiQKYbSJoY5evN-44">
          <mxGeometry relative="1" as="geometry">
            <Array as="points">
              <mxPoint x="603" y="149" />
              <mxPoint x="603" y="149" />
            </Array>
          </mxGeometry>
        </mxCell>
        <mxCell id="wKDhlSOiQKYbSJoY5evN-31" value="camera" style="swimlane;fontStyle=1;align=center;verticalAlign=top;childLayout=stackLayout;horizontal=1;startSize=26;horizontalStack=0;resizeParent=1;resizeParentMax=0;resizeLast=0;collapsible=1;marginBottom=0;fontColor=#FFFFFF;fillColor=#000000;" vertex="1" parent="1">
          <mxGeometry x="340" y="67" width="160" height="164" as="geometry" />
        </mxCell>
        <mxCell id="wKDhlSOiQKYbSJoY5evN-73" value="- operatorNum: int" style="text;strokeColor=none;fillColor=none;align=left;verticalAlign=top;spacingLeft=4;spacingRight=4;overflow=hidden;rotatable=0;points=[[0,0.5],[1,0.5]];portConstraint=eastwest;fontColor=default;" vertex="1" parent="wKDhlSOiQKYbSJoY5evN-31">
          <mxGeometry y="26" width="160" height="26" as="geometry" />
        </mxCell>
        <mxCell id="wKDhlSOiQKYbSJoY5evN-32" value="+ VRNinMemory: ArrayList" style="text;strokeColor=none;fillColor=none;align=left;verticalAlign=top;spacingLeft=4;spacingRight=4;overflow=hidden;rotatable=0;points=[[0,0.5],[1,0.5]];portConstraint=eastwest;fontColor=default;" vertex="1" parent="wKDhlSOiQKYbSJoY5evN-31">
          <mxGeometry y="52" width="160" height="26" as="geometry" />
        </mxCell>
        <mxCell id="wKDhlSOiQKYbSJoY5evN-33" value="" style="line;strokeWidth=1;fillColor=none;align=left;verticalAlign=middle;spacingTop=-1;spacingLeft=3;spacingRight=3;rotatable=0;labelPosition=right;points=[];portConstraint=eastwest;strokeColor=inherit;fontColor=default;" vertex="1" parent="wKDhlSOiQKYbSJoY5evN-31">
          <mxGeometry y="78" width="160" height="8" as="geometry" />
        </mxCell>
        <mxCell id="wKDhlSOiQKYbSJoY5evN-55" value="+ checkVRNtoPNC()" style="text;strokeColor=none;fillColor=none;align=left;verticalAlign=top;spacingLeft=4;spacingRight=4;overflow=hidden;rotatable=0;points=[[0,0.5],[1,0.5]];portConstraint=eastwest;fontColor=default;" vertex="1" parent="wKDhlSOiQKYbSJoY5evN-31">
          <mxGeometry y="86" width="160" height="26" as="geometry" />
        </mxCell>
        <mxCell id="wKDhlSOiQKYbSJoY5evN-56" value="+ storeVRNtoMemory()" style="text;strokeColor=none;fillColor=none;align=left;verticalAlign=top;spacingLeft=4;spacingRight=4;overflow=hidden;rotatable=0;points=[[0,0.5],[1,0.5]];portConstraint=eastwest;fontColor=default;" vertex="1" parent="wKDhlSOiQKYbSJoY5evN-31">
          <mxGeometry y="112" width="160" height="26" as="geometry" />
        </mxCell>
        <mxCell id="wKDhlSOiQKYbSJoY5evN-57" value="+ storeVRNtoLog()" style="text;strokeColor=none;fillColor=none;align=left;verticalAlign=top;spacingLeft=4;spacingRight=4;overflow=hidden;rotatable=0;points=[[0,0.5],[1,0.5]];portConstraint=eastwest;fontColor=default;" vertex="1" parent="wKDhlSOiQKYbSJoY5evN-31">
          <mxGeometry y="138" width="160" height="26" as="geometry" />
        </mxCell>
        <mxCell id="wKDhlSOiQKYbSJoY5evN-35" value="car" style="swimlane;fontStyle=1;align=center;verticalAlign=top;childLayout=stackLayout;horizontal=1;startSize=26;horizontalStack=0;resizeParent=1;resizeParentMax=0;resizeLast=0;collapsible=1;marginBottom=0;fontColor=#FFFFFF;fillColor=#000000;" vertex="1" parent="1">
          <mxGeometry x="637" y="67" width="180" height="294" as="geometry" />
        </mxCell>
        <mxCell id="wKDhlSOiQKYbSJoY5evN-36" value="+ VRN: String" style="text;strokeColor=none;fillColor=none;align=left;verticalAlign=top;spacingLeft=4;spacingRight=4;overflow=hidden;rotatable=0;points=[[0,0.5],[1,0.5]];portConstraint=eastwest;fontColor=default;" vertex="1" parent="wKDhlSOiQKYbSJoY5evN-35">
          <mxGeometry y="26" width="180" height="26" as="geometry" />
        </mxCell>
        <mxCell id="wKDhlSOiQKYbSJoY5evN-43" value="+ make: String" style="text;strokeColor=none;fillColor=none;align=left;verticalAlign=top;spacingLeft=4;spacingRight=4;overflow=hidden;rotatable=0;points=[[0,0.5],[1,0.5]];portConstraint=eastwest;fontColor=default;" vertex="1" parent="wKDhlSOiQKYbSJoY5evN-35">
          <mxGeometry y="52" width="180" height="26" as="geometry" />
        </mxCell>
        <mxCell id="wKDhlSOiQKYbSJoY5evN-44" value="+ model: String" style="text;strokeColor=none;fillColor=none;align=left;verticalAlign=top;spacingLeft=4;spacingRight=4;overflow=hidden;rotatable=0;points=[[0,0.5],[1,0.5]];portConstraint=eastwest;fontColor=default;" vertex="1" parent="wKDhlSOiQKYbSJoY5evN-35">
          <mxGeometry y="78" width="180" height="26" as="geometry" />
        </mxCell>
        <mxCell id="wKDhlSOiQKYbSJoY5evN-45" value="+ yearOfManufacture: byte" style="text;strokeColor=none;fillColor=none;align=left;verticalAlign=top;spacingLeft=4;spacingRight=4;overflow=hidden;rotatable=0;points=[[0,0.5],[1,0.5]];portConstraint=eastwest;fontColor=default;" vertex="1" parent="wKDhlSOiQKYbSJoY5evN-35">
          <mxGeometry y="104" width="180" height="26" as="geometry" />
        </mxCell>
        <mxCell id="wKDhlSOiQKYbSJoY5evN-46" value="+ colour: String" style="text;strokeColor=none;fillColor=none;align=left;verticalAlign=top;spacingLeft=4;spacingRight=4;overflow=hidden;rotatable=0;points=[[0,0.5],[1,0.5]];portConstraint=eastwest;fontColor=default;" vertex="1" parent="wKDhlSOiQKYbSJoY5evN-35">
          <mxGeometry y="130" width="180" height="26" as="geometry" />
        </mxCell>
        <mxCell id="wKDhlSOiQKYbSJoY5evN-47" value="+ information: String" style="text;strokeColor=none;fillColor=none;align=left;verticalAlign=top;spacingLeft=4;spacingRight=4;overflow=hidden;rotatable=0;points=[[0,0.5],[1,0.5]];portConstraint=eastwest;fontColor=default;" vertex="1" parent="wKDhlSOiQKYbSJoY5evN-35">
          <mxGeometry y="156" width="180" height="26" as="geometry" />
        </mxCell>
        <mxCell id="wKDhlSOiQKYbSJoY5evN-37" value="" style="line;strokeWidth=1;fillColor=none;align=left;verticalAlign=middle;spacingTop=-1;spacingLeft=3;spacingRight=3;rotatable=0;labelPosition=right;points=[];portConstraint=eastwest;strokeColor=inherit;fontColor=default;" vertex="1" parent="wKDhlSOiQKYbSJoY5evN-35">
          <mxGeometry y="182" width="180" height="8" as="geometry" />
        </mxCell>
        <mxCell id="wKDhlSOiQKYbSJoY5evN-38" value="+ newCar()" style="text;strokeColor=none;fillColor=none;align=left;verticalAlign=top;spacingLeft=4;spacingRight=4;overflow=hidden;rotatable=0;points=[[0,0.5],[1,0.5]];portConstraint=eastwest;fontColor=default;" vertex="1" parent="wKDhlSOiQKYbSJoY5evN-35">
          <mxGeometry y="190" width="180" height="26" as="geometry" />
        </mxCell>
        <mxCell id="wKDhlSOiQKYbSJoY5evN-63" value="+ getCar()" style="text;strokeColor=none;fillColor=none;align=left;verticalAlign=top;spacingLeft=4;spacingRight=4;overflow=hidden;rotatable=0;points=[[0,0.5],[1,0.5]];portConstraint=eastwest;fontColor=default;" vertex="1" parent="wKDhlSOiQKYbSJoY5evN-35">
          <mxGeometry y="216" width="180" height="26" as="geometry" />
        </mxCell>
        <mxCell id="wKDhlSOiQKYbSJoY5evN-58" value="+ updateCar()" style="text;strokeColor=none;fillColor=none;align=left;verticalAlign=top;spacingLeft=4;spacingRight=4;overflow=hidden;rotatable=0;points=[[0,0.5],[1,0.5]];portConstraint=eastwest;fontColor=default;" vertex="1" parent="wKDhlSOiQKYbSJoY5evN-35">
          <mxGeometry y="242" width="180" height="26" as="geometry" />
        </mxCell>
        <mxCell id="wKDhlSOiQKYbSJoY5evN-59" value="+ deleteCar()" style="text;strokeColor=none;fillColor=none;align=left;verticalAlign=top;spacingLeft=4;spacingRight=4;overflow=hidden;rotatable=0;points=[[0,0.5],[1,0.5]];portConstraint=eastwest;fontColor=default;" vertex="1" parent="wKDhlSOiQKYbSJoY5evN-35">
          <mxGeometry y="268" width="180" height="26" as="geometry" />
        </mxCell>
        <mxCell id="wKDhlSOiQKYbSJoY5evN-48" value="policeOfficer" style="swimlane;fontStyle=1;align=center;verticalAlign=top;childLayout=stackLayout;horizontal=1;startSize=26;horizontalStack=0;resizeParent=1;resizeParentMax=0;resizeLast=0;collapsible=1;marginBottom=0;fontColor=#FFFFFF;fillColor=#000000;" vertex="1" parent="1">
          <mxGeometry x="59" y="67" width="160" height="112" as="geometry" />
        </mxCell>
        <mxCell id="wKDhlSOiQKYbSJoY5evN-49" value="- staffNum: int" style="text;strokeColor=none;fillColor=none;align=left;verticalAlign=top;spacingLeft=4;spacingRight=4;overflow=hidden;rotatable=0;points=[[0,0.5],[1,0.5]];portConstraint=eastwest;fontColor=default;" vertex="1" parent="wKDhlSOiQKYbSJoY5evN-48">
          <mxGeometry y="26" width="160" height="26" as="geometry" />
        </mxCell>
        <mxCell id="wKDhlSOiQKYbSJoY5evN-50" value="" style="line;strokeWidth=1;fillColor=none;align=left;verticalAlign=middle;spacingTop=-1;spacingLeft=3;spacingRight=3;rotatable=0;labelPosition=right;points=[];portConstraint=eastwest;strokeColor=inherit;fontColor=default;" vertex="1" parent="wKDhlSOiQKYbSJoY5evN-48">
          <mxGeometry y="52" width="160" height="8" as="geometry" />
        </mxCell>
        <mxCell id="wKDhlSOiQKYbSJoY5evN-53" value="+ startShift()" style="text;strokeColor=none;fillColor=none;align=left;verticalAlign=top;spacingLeft=4;spacingRight=4;overflow=hidden;rotatable=0;points=[[0,0.5],[1,0.5]];portConstraint=eastwest;fontColor=default;" vertex="1" parent="wKDhlSOiQKYbSJoY5evN-48">
          <mxGeometry y="60" width="160" height="26" as="geometry" />
        </mxCell>
        <mxCell id="wKDhlSOiQKYbSJoY5evN-51" value="+ endShift()" style="text;strokeColor=none;fillColor=none;align=left;verticalAlign=top;spacingLeft=4;spacingRight=4;overflow=hidden;rotatable=0;points=[[0,0.5],[1,0.5]];portConstraint=eastwest;fontColor=default;" vertex="1" parent="wKDhlSOiQKYbSJoY5evN-48">
          <mxGeometry y="86" width="160" height="26" as="geometry" />
        </mxCell>
        <mxCell id="wKDhlSOiQKYbSJoY5evN-67" value="0..*" style="text;html=1;strokeColor=none;fillColor=none;align=center;verticalAlign=middle;whiteSpace=wrap;rounded=0;fontColor=#000000;fontSize=10;" vertex="1" parent="1">
          <mxGeometry x="605" y="127" width="44" height="26" as="geometry" />
        </mxCell>
        <mxCell id="wKDhlSOiQKYbSJoY5evN-68" value="0..1" style="text;html=1;strokeColor=none;fillColor=none;align=center;verticalAlign=middle;whiteSpace=wrap;rounded=0;fontColor=#000000;fontSize=10;" vertex="1" parent="1">
          <mxGeometry x="488" y="127" width="44" height="26" as="geometry" />
        </mxCell>
      </root>
    </mxGraphModel>
  </diagram>
</mxfile>
